<?xml version="1.0" encoding="utf-8"?>
<!-- Generator: Adobe Illustrator 21.1.0, SVG Export Plug-In . SVG Version: 6.00 Build 0)  -->
<svg version="1.1" id="Layer_1" xmlns="http://www.w3.org/2000/svg" xmlns:xlink="http://www.w3.org/1999/xlink" x="0px" y="0px"
	 viewBox="0 0 128 128" style="enable-background:new 0 0 128 128;" xml:space="preserve">
<rect x="33.5" y="33.5" width="61.1" height="61.1"/>
<path d="M98.9,0c-5.8,0-5.8,0-5.8,5.8s0,5.8,5.8,5.8c5.8,0,5.8,0,5.8-5.8S104.7,0,98.9,0z"/>
<path d="M122.2,23.3c-5.8,0-5.8,0-5.8,5.8s0,5.8,5.8,5.8s5.8,0,5.8-5.8S128,23.3,122.2,23.3z"/>
<path d="M122.2,46.5c-5.8,0-5.8,0-5.8,5.8s0,5.8,5.8,5.8s5.8,0,5.8-5.8S128,46.5,122.2,46.5z"/>
<path d="M75.6,0c-5.8,0-5.8,0-5.8,5.8s0,5.8,5.8,5.8s5.8,0,5.8-5.8S81.5,0,75.6,0z"/>
<path d="M122.2,69.8c-5.8,0-5.8,0-5.8,5.8s0,5.8,5.8,5.8s5.8,0,5.8-5.8S128,69.8,122.2,69.8z"/>
<path d="M52.4,0c-5.8,0-5.8,0-5.8,5.8s0,5.8,5.8,5.8s5.8,0,5.8-5.8S58.2,0,52.4,0z"/>
<path d="M122.2,93.1c-5.8,0-5.8,0-5.8,5.8c0,5.8,0,5.8,5.8,5.8s5.8,0,5.8-5.8C128,93.1,128,93.1,122.2,93.1z"/>
<path d="M29.1,0c-5.8,0-5.8,0-5.8,5.8s0,5.8,5.8,5.8s5.8,0,5.8-5.8S34.9,0,29.1,0z"/>
<path d="M122.2,116.4c-5.8,0-5.8,0-5.8,5.8s0,5.8,5.8,5.8s5.8,0,5.8-5.8S128,116.4,122.2,116.4z"/>
<path d="M5.8,0C0,0,0,0,0,5.8s0,5.8,5.8,5.8s5.8,0,5.8-5.8S11.6,0,5.8,0z"/>
<path d="M98.9,116.4c-5.8,0-5.8,0-5.8,5.8s0,5.8,5.8,5.8c5.8,0,5.8,0,5.8-5.8S104.7,116.4,98.9,116.4z"/>
<path d="M5.8,23.3c-5.8,0-5.8,0-5.8,5.8s0,5.8,5.8,5.8s5.8,0,5.8-5.8S11.6,23.3,5.8,23.3z"/>
<path d="M5.8,46.5c-5.8,0-5.8,0-5.8,5.8s0,5.8,5.8,5.8s5.8,0,5.8-5.8S11.6,46.5,5.8,46.5z"/>
<path d="M75.6,116.4c-5.8,0-5.8,0-5.8,5.8s0,5.8,5.8,5.8s5.8,0,5.8-5.8S81.5,116.4,75.6,116.4z"/>
<path d="M5.8,69.8c-5.8,0-5.8,0-5.8,5.8c0,5.8,0,5.8,5.8,5.8s5.8,0,5.8-5.8S11.6,69.8,5.8,69.8z"/>
<path d="M52.4,116.4c-5.8,0-5.8,0-5.8,5.8s0,5.8,5.8,5.8s5.8,0,5.8-5.8S58.2,116.4,52.4,116.4z"/>
<path d="M5.8,93.1c-5.8,0-5.8,0-5.8,5.8c0,5.8,0,5.8,5.8,5.8s5.8,0,5.8-5.8C11.6,93.1,11.6,93.1,5.8,93.1z"/>
<path d="M29.1,116.4c-5.8,0-5.8,0-5.8,5.8s0,5.8,5.8,5.8s5.8,0,5.8-5.8S34.9,116.4,29.1,116.4z"/>
<path d="M5.8,116.4c-5.8,0-5.8,0-5.8,5.8c0,5.8,0,5.8,5.8,5.8s5.8,0,5.8-5.8S11.6,116.4,5.8,116.4z"/>
<path d="M122.2,0c-5.8,0-5.8,0-5.8,5.8s0,5.8,5.8,5.8s5.8,0,5.8-5.8S128,0,122.2,0z"/>
</svg>
